<svg xmlns="http://www.w3.org/2000/svg" viewBox="-65 -55 130 110">
  <g transform="scale(0.7)">
    <!-- Container circle filled -->
    <circle cx="0" cy="0" r="80" fill="#2563eb"/>
    
    <!-- Connections -->
    <line x1="-40" y1="-40" x2="0" y2="-20" stroke="white" stroke-width="1.5"/>
    <line x1="0" y1="-20" x2="50" y2="-30" stroke="white" stroke-width="1.5"/>
    <line x1="0" y1="-20" x2="20" y2="10" stroke="white" stroke-width="1.5"/>
    <line x1="20" y1="10" x2="50" y2="-30" stroke="white" stroke-width="1.5"/>
    <line x1="20" y1="10" x2="40" y2="40" stroke="white" stroke-width="1.5"/>
    <line x1="20" y1="10" x2="-20" y2="30" stroke="white" stroke-width="1.5"/>
    <line x1="-20" y1="30" x2="-40" y2="-40" stroke="white" stroke-width="1.5"/>
    <line x1="-40" y1="-40" x2="-50" y2="0" stroke="white" stroke-width="1.5"/>
    <line x1="-50" y1="0" x2="-20" y2="30" stroke="white" stroke-width="1.5"/>
    
    <!-- Nodes -->
    <circle cx="-40" cy="-40" r="8" fill="white"/>
    <circle cx="0" cy="-20" r="8" fill="white"/>
    <circle cx="50" cy="-30" r="8" fill="white"/>
    <circle cx="20" cy="10" r="8" fill="white"/>
    <circle cx="40" cy="40" r="8" fill="white"/>
    <circle cx="-20" cy="30" r="8" fill="white"/>
    <circle cx="-50" cy="0" r="8" fill="white"/>
  </g>
</svg>